<svg width="24" height="24" viewBox="0 0 24 24" fill="none" xmlns="http://www.w3.org/2000/svg">
<path d="M12 4L14.2627 9.73726L20 12L14.2627 14.2627L12 20L9.73726 14.2627L4 12L9.73726 9.73726L12 4Z" fill="url(#paint0_linear_637_6859)"/>
<path d="M5 0L6.41421 3.58579L10 5L6.41421 6.41421L5 10L3.58579 6.41421L0 5L3.58579 3.58579L5 0Z" fill="url(#paint1_linear_637_6859)"/>
<path d="M0 12C0 14.5073 0.785381 16.9517 2.24584 18.9897C3.7063 21.0278 5.76847 22.5572 8.14273 23.3632C10.517 24.1691 13.0841 24.2111 15.4834 23.4833C17.8828 22.7554 19.9939 21.2943 21.5202 19.3051C23.0466 17.3159 23.9115 14.8986 23.9936 12.3926C24.0756 9.88665 23.3706 7.41792 21.9776 5.33316C20.5846 3.2484 18.5736 1.65233 16.227 0.769129C13.8804 -0.114075 11.3161 -0.240052 8.89417 0.40889L9.45322 2.49529C11.4392 1.96316 13.5419 2.06646 15.4661 2.79069C17.3904 3.51491 19.0394 4.82368 20.1817 6.53319C21.3239 8.24269 21.902 10.2671 21.8347 12.322C21.7675 14.3769 21.0582 16.3591 19.8066 17.9902C18.555 19.6213 16.8239 20.8195 14.8564 21.4163C12.8889 22.0131 10.7839 21.9787 8.83704 21.3178C6.89014 20.6569 5.19917 19.4028 4.00159 17.7316C2.80401 16.0604 2.16 14.056 2.16 12H0Z" fill="url(#paint2_linear_637_6859)"/>
<defs>
<linearGradient id="paint0_linear_637_6859" x1="12" y1="4" x2="12" y2="20" gradientUnits="userSpaceOnUse">
<stop offset="0.25" stop-color="#4B81E6"/>
<stop offset="1" stop-color="#2D51C8"/>
</linearGradient>
<linearGradient id="paint1_linear_637_6859" x1="5" y1="0" x2="5" y2="10" gradientUnits="userSpaceOnUse">
<stop offset="0.25" stop-color="#4B81E6"/>
<stop offset="1" stop-color="#2D51C8"/>
</linearGradient>
<linearGradient id="paint2_linear_637_6859" x1="12" y1="0" x2="12" y2="24" gradientUnits="userSpaceOnUse">
<stop offset="0.25" stop-color="#4B81E6"/>
<stop offset="1" stop-color="#2D51C8"/>
</linearGradient>
</defs>
</svg>
