<svg width="20" height="20" viewBox="0 0 20 20" fill="none" xmlns="http://www.w3.org/2000/svg">
<path d="M15.833 0.833374L11.6663 5.00004V14.1667L15.833 10.4167V0.833374ZM17.4997 4.16671V15.4167C16.583 15.125 15.583 15 14.583 15C13.1663 15 11.1247 15.5417 9.99967 16.25V5.00004C8.79134 4.08337 7.04134 3.75004 5.41634 3.75004C3.79134 3.75004 2.04134 4.08337 0.833008 5.00004V17.2084C0.833008 17.4167 1.04134 17.625 1.24967 17.625C1.33301 17.625 1.37467 17.5834 1.45801 17.5834C2.58301 17.0417 4.20801 16.6667 5.41634 16.6667C7.04134 16.6667 8.79134 17 9.99967 17.9167C11.1247 17.2084 13.1663 16.6667 14.583 16.6667C15.958 16.6667 17.3747 16.9167 18.5413 17.5417C18.6247 17.5834 18.6663 17.5834 18.7497 17.5834C18.958 17.5834 19.1663 17.375 19.1663 17.1667V5.00004C18.6663 4.62504 18.1247 4.37504 17.4997 4.16671ZM8.33301 15.3417C7.29134 15.075 6.24967 15 5.41634 15C4.53301 15 3.48301 15.1584 2.49967 15.4167V5.94171C3.25801 5.60837 4.28301 5.41671 5.41634 5.41671C6.54967 5.41671 7.57467 5.60837 8.33301 5.94171V15.3417Z" fill="#94A3B8"/>
</svg>
