<svg width="14" height="14" viewBox="0 0 14 14" fill="none" xmlns="http://www.w3.org/2000/svg">
<path d="M11.8998 4.10001H12.5998V4.10001H11.8998ZM6.36465 9.10001V8.40001H5.90971L5.72497 8.81575L6.36465 9.10001ZM6.27286 9.267L6.84958 9.66372L6.84969 9.66357L6.27286 9.267ZM5.32364 10.6469L4.74692 10.2502L4.7469 10.2502L5.32364 10.6469ZM3.5004 10.0805H2.8004V10.0806L3.5004 10.0805ZM3.5004 9.00821H4.2004V8.49427L3.71005 8.34034L3.5004 9.00821ZM2.10001 7.10001H1.40001V7.10001H2.10001ZM4.10001 2.10001V1.40001V1.40001V2.10001ZM9.89981 2.10001V2.80001C10.6178 2.80001 11.1998 3.38204 11.1998 4.10001H11.8998H12.5998C12.5998 2.60884 11.391 1.40001 9.89981 1.40001V2.10001ZM11.8998 4.10001H11.1998V7.10001H11.8998H12.5998V4.10001H11.8998ZM11.8998 7.10001H11.1998C11.1998 7.81798 10.6178 8.40001 9.89981 8.40001V9.10001V9.80001C11.391 9.80001 12.5998 8.59118 12.5998 7.10001H11.8998ZM9.89981 9.10001V8.40001H6.36465V9.10001V9.80001H9.89981V9.10001ZM6.36465 9.10001L5.72497 8.81575C5.71217 8.84456 5.70246 8.86108 5.69603 8.87043L6.27286 9.267L6.84969 9.66357C6.9174 9.56508 6.96696 9.46839 7.00434 9.38426L6.36465 9.10001ZM6.27286 9.267L5.69614 8.87027L4.74692 10.2502L5.32364 10.6469L5.90036 11.0436L6.84958 9.66372L6.27286 9.267ZM5.32364 10.6469L4.7469 10.2502C4.58001 10.4928 4.20043 10.375 4.2004 10.0804L3.5004 10.0805L2.8004 10.0806C2.80061 11.7497 4.95446 12.4188 5.90038 11.0436L5.32364 10.6469ZM3.5004 10.0805H4.2004V9.00821H3.5004H2.8004V10.0805H3.5004ZM3.5004 9.00821L3.71005 8.34034C3.18171 8.17449 2.80001 7.68092 2.80001 7.10001H2.10001H1.40001C1.40001 8.31036 2.19594 9.3324 3.29074 9.67608L3.5004 9.00821ZM2.10001 7.10001H2.80001V4.10001H2.10001H1.40001V7.10001H2.10001ZM2.10001 4.10001H2.80001C2.80001 3.38204 3.38204 2.80001 4.10001 2.80001V2.10001V1.40001C2.60884 1.40001 1.40001 2.60884 1.40001 4.10001H2.10001ZM4.10001 2.10001V2.80001H9.89981V2.10001V1.40001H4.10001V2.10001Z" fill="#AC5E00"/>
</svg>
