<svg width="8" height="8" viewBox="0 0 8 8" fill="none" xmlns="http://www.w3.org/2000/svg">
<path d="M3.71765 0.086605C3.63393 0.143053 3.56897 0.22322 3.5311 0.316829L3.27713 0.928747C2.85181 1.96274 2.0463 2.79435 1.02639 3.25244L0.308475 3.57239C0.216404 3.61474 0.138408 3.68261 0.0837335 3.76794C0.0290594 3.85327 0 3.95249 0 4.05383C0 4.15517 0.0290594 4.25439 0.0837335 4.33972C0.138408 4.42505 0.216404 4.49291 0.308475 4.53526L1.06838 4.87322C2.06383 5.31932 2.85586 6.1224 3.28813 7.12392L3.5341 7.68884C3.57254 7.781 3.63739 7.85971 3.72048 7.91508C3.80357 7.97045 3.90119 8 4.00104 8C4.10089 8 4.19851 7.97045 4.28161 7.91508C4.3647 7.85971 4.42955 7.781 4.46799 7.68884L4.71496 7.12292C5.14694 6.12213 5.93819 5.31949 6.9327 4.87322L7.69261 4.53526C7.7844 4.49279 7.86212 4.42494 7.91659 4.33972C7.97106 4.2545 8 4.15547 8 4.05433C8 3.95319 7.97106 3.85416 7.91659 3.76894C7.86212 3.68372 7.7844 3.61587 7.69261 3.57339L6.9747 3.25344C5.9546 2.79443 5.1494 1.96168 4.72496 0.926747L4.47099 0.316829C4.43312 0.22322 4.36816 0.143053 4.28443 0.086605C4.2007 0.030157 4.10202 0 4.00104 0C3.90006 0 3.80138 0.030157 3.71765 0.086605Z" fill="#2D3139"/>
</svg>
