<svg width="20" height="20" viewBox="15.5 16 17 16" fill="none" xmlns="http://www.w3.org/2000/svg">
<path d="M24 18.1667C23.6685 18.1667 23.3505 18.2984 23.1161 18.5328C22.8817 18.7672 22.75 19.0851 22.75 19.4167C22.75 19.7482 22.8817 20.0661 23.1161 20.3006C23.3505 20.535 23.6685 20.6667 24 20.6667C24.3315 20.6667 24.6495 20.535 24.8839 20.3006C25.1183 20.0661 25.25 19.7482 25.25 19.4167C25.25 19.0851 25.1183 18.7672 24.8839 18.5328C24.6495 18.2984 24.3315 18.1667 24 18.1667ZM21.0833 19.4167C21.0833 19.0336 21.1588 18.6544 21.3054 18.3005C21.4519 17.9466 21.6668 17.6251 21.9376 17.3543C22.2084 17.0834 22.53 16.8686 22.8838 16.722C23.2377 16.5754 23.617 16.5 24 16.5C24.383 16.5 24.7623 16.5754 25.1162 16.722C25.47 16.8686 25.7916 17.0834 26.0624 17.3543C26.3332 17.6251 26.5481 17.9466 26.6946 18.3005C26.8412 18.6544 26.9167 19.0336 26.9167 19.4167C26.9167 20.1902 26.6094 20.9321 26.0624 21.4791C25.5154 22.026 24.7735 22.3333 24 22.3333C23.2265 22.3333 22.4846 22.026 21.9376 21.4791C21.3906 20.9321 21.0833 20.1902 21.0833 19.4167ZM18.1667 20.6667C17.9457 20.6667 17.7337 20.7545 17.5774 20.9107C17.4211 21.067 17.3333 21.279 17.3333 21.5C17.3333 21.721 17.4211 21.933 17.5774 22.0893C17.7337 22.2455 17.9457 22.3333 18.1667 22.3333C18.3877 22.3333 18.5996 22.2455 18.7559 22.0893C18.9122 21.933 19 21.721 19 21.5C19 21.279 18.9122 21.067 18.7559 20.9107C18.5996 20.7545 18.3877 20.6667 18.1667 20.6667ZM15.6667 21.5C15.6667 20.837 15.9301 20.2011 16.3989 19.7322C16.8677 19.2634 17.5036 19 18.1667 19C18.8297 19 19.4656 19.2634 19.9344 19.7322C20.4033 20.2011 20.6667 20.837 20.6667 21.5C20.6667 22.163 20.4033 22.7989 19.9344 23.2678C19.4656 23.7366 18.8297 24 18.1667 24C17.5036 24 16.8677 23.7366 16.3989 23.2678C15.9301 22.7989 15.6667 22.163 15.6667 21.5ZM29 21.5C29 21.279 29.0878 21.067 29.2441 20.9107C29.4004 20.7545 29.6123 20.6667 29.8333 20.6667C30.0543 20.6667 30.2663 20.7545 30.4226 20.9107C30.5789 21.067 30.6667 21.279 30.6667 21.5C30.6667 21.721 30.5789 21.933 30.4226 22.0893C30.2663 22.2455 30.0543 22.3333 29.8333 22.3333C29.6123 22.3333 29.4004 22.2455 29.2441 22.0893C29.0878 21.933 29 21.721 29 21.5ZM29.8333 19C29.1703 19 28.5344 19.2634 28.0656 19.7322C27.5967 20.2011 27.3333 20.837 27.3333 21.5C27.3333 22.163 27.5967 22.7989 28.0656 23.2678C28.5344 23.7366 29.1703 24 29.8333 24C30.4964 24 31.1323 23.7366 31.6011 23.2678C32.0699 22.7989 32.3333 22.163 32.3333 21.5C32.3333 20.837 32.0699 20.2011 31.6011 19.7322C31.1323 19.2634 30.4964 19 29.8333 19ZM20.6667 26.0833C20.6667 24.9333 21.6 24 22.75 24H25.25C26.4 24 27.3333 24.9333 27.3333 26.0833V28.1667C27.3333 29.0507 26.9821 29.8986 26.357 30.5237C25.7319 31.1488 24.8841 31.5 24 31.5C23.1159 31.5 22.2681 31.1488 21.643 30.5237C21.0179 29.8986 20.6667 29.0507 20.6667 28.1667V26.0833ZM22.75 25.6667C22.6395 25.6667 22.5335 25.7106 22.4554 25.7887C22.3772 25.8668 22.3333 25.9728 22.3333 26.0833V28.1667C22.3333 28.6087 22.5089 29.0326 22.8215 29.3452C23.134 29.6577 23.558 29.8333 24 29.8333C24.442 29.8333 24.8659 29.6577 25.1785 29.3452C25.4911 29.0326 25.6667 28.6087 25.6667 28.1667V26.0833C25.6667 25.9728 25.6228 25.8668 25.5446 25.7887C25.4665 25.7106 25.3605 25.6667 25.25 25.6667H22.75ZM19 26.0833C19 25.6017 19.09 25.1417 19.2567 24.72L17.205 25.27C16.6716 25.413 16.2168 25.7619 15.9405 26.24C15.6643 26.7182 15.5891 27.2865 15.7317 27.82L16.055 29.0283C16.1683 29.4512 16.3639 29.8476 16.6304 30.1949C16.897 30.5423 17.2293 30.8337 17.6085 31.0525C17.9877 31.2713 18.4063 31.4133 18.8403 31.4704C19.2744 31.5274 19.7155 31.4984 20.1383 31.385L20.1667 31.3767C19.7822 30.9186 19.483 30.3953 19.2833 29.8317C18.915 29.8336 18.5565 29.7134 18.2637 29.49C17.9709 29.2665 17.7604 28.9524 17.665 28.5967L17.3417 27.3883C17.3132 27.2816 17.3282 27.1679 17.3836 27.0722C17.4389 26.9766 17.5299 26.9069 17.6367 26.8783L19 26.5117V26.0833ZM27.86 31.3833L27.8333 31.3783C28.2133 30.9233 28.515 30.4017 28.7167 29.8317C29.0847 29.8332 29.4428 29.7129 29.7353 29.4894C30.0277 29.266 30.238 28.9521 30.3333 28.5967L30.655 27.3883C30.6835 27.2816 30.6684 27.1679 30.6131 27.0722C30.5578 26.9766 30.4667 26.9069 30.36 26.8783L29 26.5133V26.0833C29 25.6017 28.91 25.1433 28.745 24.72L30.7917 25.27C31.3251 25.413 31.7799 25.7619 32.0561 26.24C32.3324 26.7182 32.4075 27.2865 32.265 27.82L31.9417 29.0283C31.8283 29.4512 31.6328 29.8476 31.3663 30.1949C31.0997 30.5423 30.7673 30.8337 30.3882 31.0525C30.009 31.2713 29.5904 31.4133 29.1563 31.4704C28.7222 31.5274 28.2812 31.4984 27.8583 31.385" fill="black"/>
</svg>
