<svg xmlns="http://www.w3.org/2000/svg" width="24" height="24" viewBox="0 0 24 24" fill="none">
  <path fill-rule="evenodd" clip-rule="evenodd" d="M10.2507 3C14.2552 3 17.5014 6.24625 17.5014 10.2507C17.5014 11.7469 17.048 13.1371 16.2714 14.2918L21.0469 19.0005C21.291 19.2415 21.2911 19.6326 21.0469 19.8735L20.0869 20.8193C19.8425 21.0603 19.4462 21.0602 19.2018 20.8193L14.4648 16.149C13.2769 16.9992 11.8229 17.5014 10.2507 17.5014C6.24625 17.5014 3 14.2552 3 10.2507C3 6.24625 6.24625 3 10.2507 3ZM10.2507 5.07163C7.39038 5.07163 5.07163 7.39038 5.07163 10.2507C5.07163 13.111 7.39038 15.4298 10.2507 15.4298C13.111 15.4298 15.4298 13.111 15.4298 10.2507C15.4298 7.39038 13.111 5.07163 10.2507 5.07163Z" fill="#009F4D"/>
</svg>
