<svg width="20" height="20" viewBox="0 0 20 20" fill="none" xmlns="http://www.w3.org/2000/svg">
<path d="M2.3335 13.0085C2.33345 11.9941 2.73638 11.0209 3.45361 10.3035L6.30811 7.44897C6.66313 7.09386 7.08447 6.81215 7.54834 6.61987C8.0125 6.42757 8.51077 6.32788 9.01318 6.32788C9.51549 6.32792 10.013 6.42761 10.4771 6.61987C10.9411 6.81218 11.3631 7.09373 11.7183 7.44897C12.1085 7.83958 12.1078 8.47264 11.7173 8.86304C11.3267 9.25329 10.6936 9.25356 10.3032 8.86304C10.1338 8.69358 9.93278 8.55927 9.71143 8.46753C9.49007 8.37582 9.25278 8.32792 9.01318 8.32788C8.77347 8.32788 8.53542 8.37578 8.31396 8.46753C8.09268 8.55928 7.89153 8.69362 7.72217 8.86304L4.86768 11.7175C4.52543 12.0599 4.33345 12.5245 4.3335 13.0085C4.33355 13.4926 4.52633 13.9573 4.86865 14.2996C5.21089 14.6415 5.6749 14.8337 6.15869 14.8337C6.64276 14.8337 7.10745 14.6409 7.44971 14.2986L7.73682 14.0261C8.13783 13.6467 8.77025 13.6643 9.1499 14.0652C9.52959 14.4661 9.5126 15.0985 9.11182 15.4783L8.84424 15.7322L8.84326 15.7312C8.12789 16.4365 7.16404 16.8336 6.15869 16.8337C5.14447 16.8337 4.17191 16.4306 3.45459 15.7136C2.73715 14.9963 2.3336 14.023 2.3335 13.0085ZM14.8335 6.15796C14.8335 5.67413 14.6413 5.21017 14.2993 4.86792C13.9571 4.5256 13.4924 4.33281 13.0083 4.33276C12.5245 4.33275 12.0605 4.52496 11.7183 4.86694C11.7104 4.8748 11.702 4.88279 11.6938 4.89038L10.8374 5.69116C10.434 6.06832 9.8005 6.04676 9.42334 5.64331C9.04654 5.23984 9.06786 4.60727 9.47119 4.23022L10.3276 3.42944C11.0426 2.72698 12.0051 2.33275 13.0083 2.33276C14.0228 2.33287 14.9961 2.73642 15.7134 3.45386C16.4304 4.17118 16.8335 5.1437 16.8335 6.15796C16.8334 7.17232 16.4297 8.1448 15.7124 8.86206L12.8599 11.7175C12.5047 12.0729 12.0828 12.3553 11.6187 12.5476C11.1546 12.7399 10.6571 12.8386 10.1548 12.8386C9.65255 12.8386 9.15493 12.7398 8.69092 12.5476C8.22677 12.3553 7.80491 12.0728 7.44971 11.7175C7.05925 11.3269 7.05912 10.6939 7.44971 10.3035C7.84023 9.91322 8.47334 9.91316 8.86377 10.3035C9.03318 10.4729 9.2342 10.6082 9.45557 10.7C9.67703 10.7917 9.91507 10.8386 10.1548 10.8386C10.3944 10.8386 10.6317 10.7916 10.853 10.7C11.0745 10.6082 11.2753 10.473 11.4448 10.3035L14.2983 7.44897L14.4204 7.31519C14.6866 6.99043 14.8335 6.58152 14.8335 6.15796Z" fill="#000"/>
</svg>
