<svg width="223" height="50" viewBox="0 0 223 50" fill="none" xmlns="http://www.w3.org/2000/svg">
<g clip-path="url(#clip0_2199_8601)">
<path d="M156.488 35.375C156.488 39.0841 155.382 42.009 153.192 44.1285C151.001 46.2479 147.938 47.3077 144.003 47.3077C141.557 47.3077 139.515 46.905 137.877 46.0784C136.239 45.2518 134.878 44.1285 133.793 42.666L138.43 39.3172C139.111 40.2922 139.876 41.034 140.748 41.5851C141.62 42.115 142.727 42.3905 144.109 42.3905C145.853 42.3905 147.236 41.8818 148.278 40.8433C149.299 39.8047 149.81 38.3423 149.81 36.4348V34.7392H149.724C148.937 35.7141 147.98 36.456 146.832 36.9646C145.683 37.4521 144.343 37.7065 142.79 37.7065C140.195 37.7065 138.005 36.7739 136.239 34.9088C134.474 33.0436 133.602 30.4155 133.602 26.9819C133.602 23.1669 134.623 20.2208 136.686 18.1437C138.749 16.0666 141.174 15.0281 143.981 15.0281C145.066 15.0281 146.13 15.24 147.151 15.6639C148.172 16.0878 149.023 16.7237 149.682 17.5715H149.767V15.5579H156.467V35.375H156.488ZM149.895 26.7912V25.0744C149.895 23.7391 149.469 22.5946 148.597 21.6408C147.746 20.6871 146.619 20.2208 145.279 20.2208C143.748 20.2208 142.556 20.793 141.706 21.9376C140.855 23.0821 140.408 24.6505 140.408 26.6428C140.408 28.4867 140.812 29.928 141.62 30.9665C142.429 32.0051 143.599 32.5137 145.13 32.5137C146.449 32.5137 147.555 32.0051 148.491 30.9877C149.427 29.9704 149.895 28.5715 149.895 26.7912Z" fill="#4D4E51"/>
<path d="M180.31 28.2748H166.165C166.272 29.6736 166.74 30.7758 167.612 31.6024C168.484 32.429 169.611 32.8317 171.036 32.8317C171.887 32.8317 172.674 32.6197 173.397 32.1958C174.12 31.7719 174.759 31.1361 175.312 30.2883L180.225 33.0648C178.991 34.6756 177.587 35.8413 176.056 36.5831C174.525 37.325 172.802 37.6853 170.93 37.6853C167.335 37.6853 164.549 36.7103 162.549 34.7816C160.55 32.8529 159.55 30.1611 159.55 26.6852C159.55 23.2092 160.593 20.2632 162.677 18.1649C164.762 16.0666 167.335 15.0281 170.377 15.0281C173.419 15.0281 175.992 15.9606 177.715 17.8258C179.438 19.6909 180.31 22.5098 180.31 26.2613V28.2536V28.2748ZM174.099 24.057C174.099 22.5734 173.78 21.4713 173.163 20.7295C172.525 19.9877 171.696 19.6273 170.632 19.6273C169.356 19.6273 168.335 20.0512 167.548 20.899C166.761 21.7468 166.293 22.8066 166.123 24.057H174.099Z" fill="#4D4E51"/>
<path d="M204.028 37.1761H197.349V24.7772C197.349 23.3996 197.051 22.2974 196.456 21.4708C195.86 20.6442 194.988 20.2415 193.818 20.2415C192.648 20.2415 191.67 20.6866 190.925 21.5556C190.181 22.4246 189.777 23.5267 189.777 24.862V37.1761H183.077V15.5787H189.777V18.3128H189.862C190.564 17.3379 191.542 16.5325 192.797 15.939C194.052 15.3456 195.307 15.0488 196.583 15.0488C199.029 15.0488 200.88 15.8118 202.135 17.3167C203.39 18.8427 204.028 20.9834 204.028 23.7599V37.1761Z" fill="#4D4E51"/>
<path d="M223 35.6291C222.341 36.2438 221.511 36.7313 220.554 37.1128C219.576 37.4943 218.512 37.685 217.385 37.685C214.896 37.685 213.067 37.1128 211.854 35.9683C210.642 34.8237 210.046 33.1282 210.046 30.8603V20.4537H206.537V15.5365H210.046V10.0259L216.725 8.83899V15.5153H221.937V20.4325H216.725V30.7967C216.725 31.4538 216.874 31.9624 217.151 32.3016C217.449 32.6407 217.853 32.8102 218.363 32.8102C218.682 32.8102 218.98 32.7466 219.299 32.6619C219.618 32.5559 219.958 32.344 220.299 32.026L222.979 35.6079L223 35.6291Z" fill="#4D4E51"/>
<path d="M41.5207 28.19H27.461C27.5674 29.5677 28.0353 30.6698 28.9074 31.4964C29.7794 32.323 30.9068 32.7257 32.3106 32.7257C33.1614 32.7257 33.9484 32.5137 34.6503 32.0898C35.3523 31.666 35.9904 31.0513 36.5647 30.2035L41.4569 32.98C40.2232 34.5696 38.8406 35.7353 37.3091 36.4772C35.7777 37.219 34.0761 37.5793 32.2043 37.5793C28.6309 37.5793 25.8657 36.6255 23.8663 34.6968C21.8669 32.7681 20.8672 30.0975 20.8672 26.6428C20.8672 23.1881 21.9094 20.242 23.9939 18.1649C26.0784 16.0878 28.6309 15.0281 31.6513 15.0281C34.6716 15.0281 37.2241 15.9606 38.947 17.8258C40.6699 19.6909 41.5207 22.4886 41.5207 26.2189V28.19ZM35.3523 23.9935C35.3523 22.531 35.0332 21.4289 34.4164 20.6871C33.7995 19.9453 32.9487 19.5849 31.9065 19.5849C30.6515 19.5849 29.6306 20.0089 28.8436 20.8354C28.0566 21.662 27.5886 22.7218 27.4184 23.9723H35.3523V23.9935Z" fill="#4D4E51"/>
<path d="M63.1104 37.0494H56.8144V34.6332H56.7293C55.9211 35.6082 54.9852 36.35 53.9217 36.8375C52.8369 37.3249 51.6457 37.5793 50.3057 37.5793C48.4764 37.5793 46.9024 37.007 45.5624 35.8837C44.2224 34.7604 43.563 33.2132 43.563 31.2421C43.563 29.2709 44.2011 27.7237 45.4773 26.4309C46.7536 25.138 48.6253 24.3538 51.114 24.0994L56.8357 23.4848V22.8277C56.8357 21.7892 56.4954 20.9838 55.836 20.4539C55.1766 19.9241 54.3471 19.6485 53.3474 19.6485C52.3476 19.6485 51.4755 19.8817 50.7098 20.348C49.9441 20.8142 49.2634 21.4925 48.6466 22.4039L44.2011 19.7545C44.9668 18.5252 46.2005 17.4231 47.9022 16.4693C49.6038 15.5156 51.6032 15.0281 53.9217 15.0281C56.8995 15.0281 59.1754 15.7911 60.7282 17.3171C62.2809 18.8431 63.0679 21.1322 63.0679 24.2054V37.0494H63.1104ZM56.8569 28.3172V27.4906L52.5604 27.9145C51.5607 28.0205 50.8374 28.296 50.3695 28.7411C49.9228 29.1862 49.6889 29.7796 49.6889 30.5426C49.6889 31.2209 49.9441 31.7719 50.4546 32.217C50.9651 32.6621 51.6032 32.8741 52.3689 32.8741C53.6877 32.8741 54.7725 32.4502 55.602 31.5812C56.4315 30.7122 56.8569 29.6313 56.8569 28.3172Z" fill="#4D4E51"/>
<path d="M100.973 37.0494H94.3365V24.6293C94.3365 23.1669 94.0387 22.0647 93.4644 21.3229C92.8901 20.5811 92.018 20.2208 90.8694 20.2208C89.7208 20.2208 88.8913 20.6871 88.1894 21.5985C87.5087 22.5098 87.1471 23.6543 87.1471 25.032V37.0494H80.4895V24.6717C80.4895 23.1881 80.213 22.0859 79.6387 21.3441C79.0644 20.6023 78.2348 20.242 77.0862 20.242C75.9376 20.242 75.0443 20.6871 74.3636 21.5561C73.683 22.425 73.3426 23.612 73.3426 25.138V37.0706H66.6851V15.5791H73.3426V18.2709H73.4277C74.1084 17.3383 75.0868 16.5753 76.3205 15.9606C77.5542 15.3672 78.8517 15.0493 80.1704 15.0493C81.7232 15.0493 83.0419 15.3672 84.1054 15.9818C85.1689 16.5965 85.9347 17.4231 86.4239 18.4192C87.3811 17.2959 88.4871 16.4481 89.7208 15.8759C90.9757 15.3248 92.3583 15.0281 93.8898 15.0281C95.9743 15.0281 97.6759 15.7699 98.9734 17.2323C100.271 18.6948 100.93 20.8566 100.93 23.6755V37.0494H100.973Z" fill="#4D4E51"/>
<path d="M118.18 10.704C120.401 10.704 122.201 8.91053 122.201 6.69819C122.201 4.48584 120.401 2.69238 118.18 2.69238C115.96 2.69238 114.16 4.48584 114.16 6.69819C114.16 8.91053 115.96 10.704 118.18 10.704Z" fill="#00AAFF"/>
<path d="M117.881 19.1398H117.796L111.585 37.0917H104.651L113.712 13.2264H122.497L131.728 37.0917H124.496L117.881 19.1398Z" fill="#00AAFF"/>
<path d="M8.40177 11.8062H0V5.91406H23.9929V11.8062H15.4635V36.9644H8.42306V11.8062H8.40177Z" fill="#4D4E51"/>
</g>
<defs>
<clipPath id="clip0_2199_8601">
<rect width="223" height="50" fill="white"/>
</clipPath>
</defs>
</svg>
