<svg width="20" height="20" viewBox="0 0 20 20" fill="none" xmlns="http://www.w3.org/2000/svg">
<path fill-rule="evenodd" clip-rule="evenodd" d="M10.0003 18.3334C5.39783 18.3334 1.66699 14.6025 1.66699 10C1.66699 5.39752 5.39783 1.66669 10.0003 1.66669C14.6028 1.66669 18.3337 5.39752 18.3337 10C18.3337 14.6025 14.6028 18.3334 10.0003 18.3334ZM10.0003 3.33335C8.68178 3.33335 7.39285 3.72435 6.29652 4.45689C5.2002 5.18943 4.34571 6.23062 3.84113 7.4488C3.33654 8.66697 3.20452 10.0074 3.46176 11.3006C3.71899 12.5938 4.35393 13.7817 5.28628 14.7141C6.21863 15.6464 7.40652 16.2814 8.69972 16.5386C9.99293 16.7958 11.3334 16.6638 12.5515 16.1592C13.7697 15.6546 14.8109 14.8001 15.5435 13.7038C16.276 12.6075 16.667 11.3186 16.667 10H10.0003V3.33335Z" fill="#3C69DB"/>
</svg>
