<svg width="16" height="16" viewBox="0 0 16 16" fill="none" xmlns="http://www.w3.org/2000/svg">
<mask id="path-1-inside-1_478_15356" fill="white">
<path d="M12.8865 4.46266L13.1665 3.54466C13.1921 3.46092 13.2339 3.38305 13.2896 3.31548C13.3454 3.24792 13.4138 3.19199 13.4911 3.15088C13.5685 3.10977 13.6531 3.0843 13.7403 3.07591C13.8275 3.06753 13.9154 3.07639 13.9992 3.102C14.0829 3.1276 14.1608 3.16946 14.2283 3.22516C14.2959 3.28086 14.3518 3.34933 14.3929 3.42665C14.434 3.50397 14.4595 3.58863 14.4679 3.6758C14.4763 3.76296 14.4674 3.85092 14.4418 3.93466L13.6618 6.48466C13.6101 6.65365 13.4935 6.79521 13.3374 6.87821C13.1814 6.96122 12.9989 6.97889 12.8298 6.92733L10.2798 6.14733C10.1943 6.12327 10.1145 6.08236 10.045 6.02702C9.97558 5.97168 9.91788 5.90302 9.87532 5.82507C9.83276 5.74712 9.80621 5.66145 9.79721 5.5731C9.78822 5.48474 9.79698 5.39548 9.82296 5.31055C9.84894 5.22563 9.89164 5.14675 9.94853 5.07855C10.0054 5.01035 10.0754 4.95421 10.1543 4.91342C10.2331 4.87262 10.3194 4.84801 10.4079 4.84101C10.4965 4.83401 10.5855 4.84477 10.6698 4.87266L11.7845 5.21333C11.2917 4.46593 10.6044 3.86712 9.79653 3.48139C8.98867 3.09566 8.09088 2.93763 7.19986 3.02431C6.30884 3.111 5.45835 3.43912 4.73999 3.97334C4.02163 4.50756 3.46261 5.22763 3.12315 6.056L2.94982 6.478C2.9183 6.5613 2.8704 6.63744 2.80896 6.70193C2.74752 6.76641 2.67378 6.81793 2.59209 6.85344C2.51041 6.88895 2.42244 6.90773 2.33338 6.90867C2.24431 6.90962 2.15597 6.89271 2.07355 6.85894C1.99113 6.82517 1.91631 6.77523 1.85352 6.71206C1.79072 6.64889 1.74122 6.57379 1.70794 6.49117C1.67465 6.40856 1.65826 6.32011 1.65973 6.23105C1.6612 6.142 1.6805 6.05414 1.71649 5.97266L1.88982 5.55066C2.32064 4.49952 3.02963 3.58556 3.94067 2.90694C4.85171 2.22832 5.93039 1.81067 7.06088 1.69882C8.19137 1.58697 9.33098 1.78515 10.3573 2.27209C11.3837 2.75902 12.258 3.51632 12.8865 4.46266ZM2.53849 11.538L2.32049 12.412C2.30098 12.4987 2.26435 12.5806 2.21274 12.6529C2.16113 12.7252 2.09558 12.7865 2.01995 12.8331C1.94432 12.8797 1.86014 12.9108 1.77234 12.9244C1.68455 12.938 1.59491 12.934 1.50871 12.9125C1.4225 12.891 1.34147 12.8525 1.27036 12.7992C1.19926 12.7459 1.13952 12.679 1.09465 12.6023C1.04979 12.5256 1.02071 12.4407 1.00912 12.3526C0.997525 12.2645 1.00366 12.175 1.02715 12.0893L1.67182 9.50266C1.69357 9.41459 1.73307 9.33189 1.78789 9.25961C1.84271 9.18733 1.91171 9.12701 1.99066 9.08232C2.06961 9.03764 2.15684 9.00953 2.24703 8.99973C2.33721 8.98994 2.42845 8.99865 2.51515 9.02533L5.06715 9.66133C5.23875 9.70412 5.38632 9.81332 5.4774 9.96491C5.56848 10.1165 5.59561 10.2981 5.55282 10.4697C5.51003 10.6413 5.40083 10.7888 5.24924 10.8799C5.09765 10.971 4.91608 10.9981 4.74449 10.9553L3.55382 10.6587C4.06283 11.4379 4.78233 12.0568 5.62885 12.4437C6.47537 12.8306 7.41424 12.9696 8.33654 12.8446C9.25885 12.7195 10.1268 12.3355 10.8397 11.7372C11.5527 11.1388 12.0814 10.3506 12.3645 9.464C12.4182 9.2955 12.5367 9.15525 12.6939 9.07411C12.7717 9.03393 12.8567 9.00948 12.9439 9.00214C13.0312 8.9948 13.1191 9.00472 13.2025 9.03133C13.2859 9.05795 13.3633 9.10073 13.4302 9.15725C13.4971 9.21377 13.5522 9.28291 13.5924 9.36072C13.6326 9.43854 13.657 9.52351 13.6644 9.61077C13.6717 9.69804 13.6618 9.7859 13.6352 9.86933C13.3577 10.74 12.8927 11.5393 12.2731 12.2109C11.6534 12.8825 10.894 13.4101 10.0485 13.7567C8.73103 14.2964 7.26891 14.3707 5.90352 13.9673C4.53814 13.564 3.35113 12.707 2.53849 11.538Z"/>
</mask>
<path d="M12.8865 4.46266L13.1665 3.54466C13.1921 3.46092 13.2339 3.38305 13.2896 3.31548C13.3454 3.24792 13.4138 3.19199 13.4911 3.15088C13.5685 3.10977 13.6531 3.0843 13.7403 3.07591C13.8275 3.06753 13.9154 3.07639 13.9992 3.102C14.0829 3.1276 14.1608 3.16946 14.2283 3.22516C14.2959 3.28086 14.3518 3.34933 14.3929 3.42665C14.434 3.50397 14.4595 3.58863 14.4679 3.6758C14.4763 3.76296 14.4674 3.85092 14.4418 3.93466L13.6618 6.48466C13.6101 6.65365 13.4935 6.79521 13.3374 6.87821C13.1814 6.96122 12.9989 6.97889 12.8298 6.92733L10.2798 6.14733C10.1943 6.12327 10.1145 6.08236 10.045 6.02702C9.97558 5.97168 9.91788 5.90302 9.87532 5.82507C9.83276 5.74712 9.80621 5.66145 9.79721 5.5731C9.78822 5.48474 9.79698 5.39548 9.82296 5.31055C9.84894 5.22563 9.89164 5.14675 9.94853 5.07855C10.0054 5.01035 10.0754 4.95421 10.1543 4.91342C10.2331 4.87262 10.3194 4.84801 10.4079 4.84101C10.4965 4.83401 10.5855 4.84477 10.6698 4.87266L11.7845 5.21333C11.2917 4.46593 10.6044 3.86712 9.79653 3.48139C8.98867 3.09566 8.09088 2.93763 7.19986 3.02431C6.30884 3.111 5.45835 3.43912 4.73999 3.97334C4.02163 4.50756 3.46261 5.22763 3.12315 6.056L2.94982 6.478C2.9183 6.5613 2.8704 6.63744 2.80896 6.70193C2.74752 6.76641 2.67378 6.81793 2.59209 6.85344C2.51041 6.88895 2.42244 6.90773 2.33338 6.90867C2.24431 6.90962 2.15597 6.89271 2.07355 6.85894C1.99113 6.82517 1.91631 6.77523 1.85352 6.71206C1.79072 6.64889 1.74122 6.57379 1.70794 6.49117C1.67465 6.40856 1.65826 6.32011 1.65973 6.23105C1.6612 6.142 1.6805 6.05414 1.71649 5.97266L1.88982 5.55066C2.32064 4.49952 3.02963 3.58556 3.94067 2.90694C4.85171 2.22832 5.93039 1.81067 7.06088 1.69882C8.19137 1.58697 9.33098 1.78515 10.3573 2.27209C11.3837 2.75902 12.258 3.51632 12.8865 4.46266ZM2.53849 11.538L2.32049 12.412C2.30098 12.4987 2.26435 12.5806 2.21274 12.6529C2.16113 12.7252 2.09558 12.7865 2.01995 12.8331C1.94432 12.8797 1.86014 12.9108 1.77234 12.9244C1.68455 12.938 1.59491 12.934 1.50871 12.9125C1.4225 12.891 1.34147 12.8525 1.27036 12.7992C1.19926 12.7459 1.13952 12.679 1.09465 12.6023C1.04979 12.5256 1.02071 12.4407 1.00912 12.3526C0.997525 12.2645 1.00366 12.175 1.02715 12.0893L1.67182 9.50266C1.69357 9.41459 1.73307 9.33189 1.78789 9.25961C1.84271 9.18733 1.91171 9.12701 1.99066 9.08232C2.06961 9.03764 2.15684 9.00953 2.24703 8.99973C2.33721 8.98994 2.42845 8.99865 2.51515 9.02533L5.06715 9.66133C5.23875 9.70412 5.38632 9.81332 5.4774 9.96491C5.56848 10.1165 5.59561 10.2981 5.55282 10.4697C5.51003 10.6413 5.40083 10.7888 5.24924 10.8799C5.09765 10.971 4.91608 10.9981 4.74449 10.9553L3.55382 10.6587C4.06283 11.4379 4.78233 12.0568 5.62885 12.4437C6.47537 12.8306 7.41424 12.9696 8.33654 12.8446C9.25885 12.7195 10.1268 12.3355 10.8397 11.7372C11.5527 11.1388 12.0814 10.3506 12.3645 9.464C12.4182 9.2955 12.5367 9.15525 12.6939 9.07411C12.7717 9.03393 12.8567 9.00948 12.9439 9.00214C13.0312 8.9948 13.1191 9.00472 13.2025 9.03133C13.2859 9.05795 13.3633 9.10073 13.4302 9.15725C13.4971 9.21377 13.5522 9.28291 13.5924 9.36072C13.6326 9.43854 13.657 9.52351 13.6644 9.61077C13.6717 9.69804 13.6618 9.7859 13.6352 9.86933C13.3577 10.74 12.8927 11.5393 12.2731 12.2109C11.6534 12.8825 10.894 13.4101 10.0485 13.7567C8.73103 14.2964 7.26891 14.3707 5.90352 13.9673C4.53814 13.564 3.35113 12.707 2.53849 11.538Z" fill="#6F7A93"/>
<path d="M12.8865 4.46266L11.7202 5.23716L13.3605 7.7072L14.2256 4.8711L12.8865 4.46266ZM13.1665 3.54466L11.8277 3.13526L11.8274 3.13622L13.1665 3.54466ZM14.4418 3.93466L15.7806 4.34417L15.7806 4.34407L14.4418 3.93466ZM13.6618 6.48466L12.3231 6.07516L12.323 6.07516L13.6618 6.48466ZM12.8298 6.92733L12.4203 8.2661L12.4214 8.26643L12.8298 6.92733ZM10.2798 6.14733L10.6893 4.80856L10.6743 4.80396L10.6592 4.7997L10.2798 6.14733ZM10.6698 4.87266L10.2302 6.20183L10.2453 6.20686L10.2606 6.21153L10.6698 4.87266ZM11.7845 5.21333L11.3753 6.5522L15.0933 7.68849L12.9533 4.44272L11.7845 5.21333ZM3.12315 6.056L4.41817 6.58792L4.4186 6.58686L3.12315 6.056ZM2.94982 6.478L1.65481 5.94608L1.64737 5.96419L1.64044 5.98249L2.94982 6.478ZM1.71649 5.97266L2.99711 6.53836L3.00453 6.52157L3.0115 6.50458L1.71649 5.97266ZM1.88982 5.55066L3.18484 6.08258L3.18524 6.0816L1.88982 5.55066ZM2.53849 11.538L3.68802 10.7389L1.92684 8.20538L1.18011 11.1992L2.53849 11.538ZM2.32049 12.412L0.962105 12.0732L0.958192 12.0889L0.954642 12.1046L2.32049 12.412ZM1.02715 12.0893L2.37731 12.4596L2.38164 12.4438L2.3856 12.4279L1.02715 12.0893ZM1.67182 9.50266L3.03027 9.84123L3.03099 9.83832L1.67182 9.50266ZM2.51515 9.02533L2.10332 10.3634L2.13969 10.3746L2.17661 10.3838L2.51515 9.02533ZM5.06715 9.66133L5.40588 8.30293L5.4057 8.30288L5.06715 9.66133ZM4.74449 10.9553L5.08321 9.59693L5.08296 9.59686L4.74449 10.9553ZM3.55382 10.6587L3.8923 9.3002L0.430827 8.43774L2.38173 11.4243L3.55382 10.6587ZM12.3645 9.464L13.6981 9.88988L13.6983 9.88946L12.3645 9.464ZM12.6939 9.07411L12.0516 7.83013V7.83013L12.6939 9.07411ZM13.6352 9.86933L12.3014 9.44386L12.3013 9.4442L13.6352 9.86933ZM10.0485 13.7567L10.5792 15.0522L10.5794 15.0521L10.0485 13.7567ZM12.8865 4.46266L14.2256 4.8711L14.5056 3.9531L13.1665 3.54466L11.8274 3.13622L11.5474 4.05422L12.8865 4.46266ZM13.1665 3.54466L14.5053 3.95407C14.4771 4.04614 14.4311 4.13177 14.3699 4.20606L13.2896 3.31548L12.2094 2.4249C12.0368 2.63433 11.9071 2.8757 11.8277 3.13526L13.1665 3.54466ZM13.2896 3.31548L14.3699 4.20606C14.3086 4.28035 14.2333 4.34185 14.1483 4.38705L13.4911 3.15088L12.834 1.91471C12.5943 2.04212 12.3821 2.21548 12.2094 2.4249L13.2896 3.31548ZM13.4911 3.15088L14.1483 4.38705C14.0633 4.43225 13.9702 4.46025 13.8744 4.46948L13.7403 3.07591L13.6062 1.68235C13.336 1.70835 13.0736 1.7873 12.834 1.91471L13.4911 3.15088ZM13.7403 3.07591L13.8744 4.46948C13.7785 4.4787 13.6818 4.46895 13.5897 4.4408L13.9992 3.102L14.4086 1.7632C14.149 1.68383 13.8764 1.65635 13.6062 1.68235L13.7403 3.07591ZM13.9992 3.102L13.5897 4.4408C13.4977 4.41264 13.412 4.36662 13.3378 4.30538L14.2283 3.22516L15.1189 2.14494C14.9095 1.97229 14.6681 1.84257 14.4086 1.7632L13.9992 3.102ZM14.2283 3.22516L13.3378 4.30538C13.2635 4.24413 13.202 4.16884 13.1568 4.08383L14.3929 3.42665L15.6291 2.76947C15.5017 2.52982 15.3283 2.3176 15.1189 2.14494L14.2283 3.22516ZM14.3929 3.42665L13.1568 4.08383C13.1116 3.99882 13.0836 3.90573 13.0743 3.80989L14.4679 3.6758L15.8615 3.5417C15.8355 3.27153 15.7565 3.00913 15.6291 2.76947L14.3929 3.42665ZM14.4679 3.6758L13.0743 3.80989C13.0651 3.71405 13.0749 3.61733 13.103 3.52526L14.4418 3.93466L15.7806 4.34407C15.86 4.08452 15.8875 3.81187 15.8615 3.5417L14.4679 3.6758ZM14.4418 3.93466L13.1031 3.52516L12.3231 6.07516L13.6618 6.48466L15.0006 6.89417L15.7806 4.34417L14.4418 3.93466ZM13.6618 6.48466L12.323 6.07516C12.3799 5.88928 12.5082 5.73357 12.6799 5.64226L13.3374 6.87821L13.995 8.11416C14.4787 7.85685 14.8404 7.41803 15.0006 6.89416L13.6618 6.48466ZM13.3374 6.87821L12.6799 5.64226C12.8515 5.55095 13.0523 5.53152 13.2382 5.58823L12.8298 6.92733L12.4214 8.26643C12.9454 8.42625 13.5114 8.37148 13.995 8.11416L13.3374 6.87821ZM12.8298 6.92733L13.2393 5.58856L10.6893 4.80856L10.2798 6.14733L9.87032 7.4861L12.4203 8.2661L12.8298 6.92733ZM10.2798 6.14733L10.6592 4.7997C10.7532 4.82617 10.841 4.87117 10.9174 4.93204L10.045 6.02702L9.17269 7.12201C9.38802 7.29356 9.63547 7.42036 9.90049 7.49496L10.2798 6.14733ZM10.045 6.02702L10.9174 4.93204C10.9938 4.99291 11.0573 5.06844 11.1041 5.15419L9.87532 5.82507L8.64654 6.49596C8.77847 6.73761 8.95736 6.95046 9.17269 7.12201L10.045 6.02702ZM9.87532 5.82507L11.1041 5.15419C11.1509 5.23993 11.1801 5.33416 11.19 5.43136L9.79721 5.5731L8.40441 5.71483C8.43228 5.98874 8.5146 6.25431 8.64654 6.49596L9.87532 5.82507ZM9.79721 5.5731L11.19 5.43136C11.1999 5.52855 11.1903 5.62674 11.1617 5.72016L9.82296 5.31055L8.48422 4.90095C8.40367 5.16422 8.37653 5.44093 8.40441 5.71483L9.79721 5.5731ZM9.82296 5.31055L11.1617 5.72016C11.1331 5.81358 11.0862 5.90034 11.0236 5.97536L9.94853 5.07855L8.87348 4.18174C8.69711 4.39316 8.56477 4.63768 8.48422 4.90095L9.82296 5.31055ZM9.94853 5.07855L11.0236 5.97536C10.961 6.05038 10.8841 6.11213 10.7973 6.15701L10.1543 4.91342L9.51123 3.66983C9.26667 3.79628 9.04984 3.97033 8.87348 4.18174L9.94853 5.07855ZM10.1543 4.91342L10.7973 6.15701C10.7105 6.20188 10.6156 6.22896 10.5182 6.23666L10.4079 4.84101L10.2976 3.44536C10.0231 3.46706 9.75578 3.54337 9.51123 3.66983L10.1543 4.91342ZM10.4079 4.84101L10.5182 6.23666C10.4209 6.24435 10.3229 6.23251 10.2302 6.20183L10.6698 4.87266L11.1095 3.54349C10.8481 3.45703 10.5721 3.42367 10.2976 3.44536L10.4079 4.84101ZM10.6698 4.87266L10.2606 6.21153L11.3753 6.5522L11.7845 5.21333L12.1937 3.87446L11.079 3.5338L10.6698 4.87266ZM11.7845 5.21333L12.9533 4.44272C12.3203 3.48267 11.4375 2.71348 10.3998 2.21801L9.79653 3.48139L9.19331 4.74476C9.77132 5.02075 10.2631 5.44919 10.6157 5.98394L11.7845 5.21333ZM9.79653 3.48139L10.3998 2.21801C9.36204 1.72253 8.20882 1.51954 7.06429 1.63089L7.19986 3.02431L7.33543 4.41773C7.97294 4.35571 8.61529 4.46878 9.19331 4.74476L9.79653 3.48139ZM7.19986 3.02431L7.06429 1.63089C5.91976 1.74224 4.8273 2.16372 3.90455 2.84993L4.73999 3.97334L5.57542 5.09675C6.0894 4.71452 6.69791 4.47976 7.33543 4.41773L7.19986 3.02431ZM4.73999 3.97334L3.90455 2.84993C2.98181 3.53614 2.26375 4.46108 1.82771 5.52513L3.12315 6.056L4.4186 6.58686C4.66148 5.99417 5.06145 5.47897 5.57542 5.09675L4.73999 3.97334ZM3.12315 6.056L1.82814 5.52408L1.65481 5.94608L2.94982 6.478L4.24484 7.00991L4.41817 6.58791L3.12315 6.056ZM2.94982 6.478L1.64044 5.98249C1.67512 5.89086 1.7278 5.80711 1.79539 5.73617L2.80896 6.70193L3.82253 7.66768C4.013 7.46778 4.16148 7.23174 4.2592 6.9735L2.94982 6.478ZM2.80896 6.70193L1.79539 5.73617C1.86297 5.66524 1.94409 5.60857 2.03394 5.56951L2.59209 6.85344L3.15025 8.13736C3.40347 8.02728 3.63206 7.86757 3.82253 7.66768L2.80896 6.70193ZM2.59209 6.85344L2.03394 5.56951C2.12379 5.53045 2.22056 5.50979 2.31853 5.50875L2.33338 6.90867L2.34823 8.30859C2.62432 8.30567 2.89703 8.24744 3.15025 8.13736L2.59209 6.85344ZM2.33338 6.90867L2.31853 5.50875C2.4165 5.50771 2.51368 5.52631 2.60434 5.56346L2.07355 6.85894L1.54275 8.15441C1.79825 8.2591 2.07213 8.31152 2.34823 8.30859L2.33338 6.90867ZM2.07355 6.85894L2.60434 5.56346C2.695 5.60061 2.7773 5.65554 2.84637 5.72503L1.85352 6.71206L0.860661 7.69909C1.05533 7.89491 1.28726 8.04973 1.54275 8.15441L2.07355 6.85894ZM1.85352 6.71206L2.84637 5.72503C2.91545 5.79451 2.9699 5.87713 3.00651 5.968L1.70794 6.49117L0.409362 7.01434C0.512542 7.27044 0.665996 7.50328 0.860661 7.69909L1.85352 6.71206ZM1.70794 6.49117L3.00651 5.968C3.04312 6.05888 3.06116 6.15617 3.05954 6.25413L1.65973 6.23105L0.259921 6.20797C0.255368 6.48404 0.306182 6.75823 0.409362 7.01434L1.70794 6.49117ZM1.65973 6.23105L3.05954 6.25413C3.05792 6.3521 3.0367 6.44874 2.99711 6.53836L1.71649 5.97266L0.435868 5.40697C0.3243 5.65953 0.264473 5.93189 0.259921 6.20797L1.65973 6.23105ZM1.71649 5.97266L3.0115 6.50458L3.18484 6.08258L1.88982 5.55066L0.594806 5.01875L0.421473 5.44075L1.71649 5.97266ZM1.88982 5.55066L3.18524 6.0816C3.51962 5.26576 4.0699 4.5564 4.77699 4.02969L3.94067 2.90694L3.10435 1.78419C1.98937 2.61473 1.12167 3.73327 0.594403 5.01973L1.88982 5.55066ZM3.94067 2.90694L4.77699 4.02969C5.48409 3.50299 6.3213 3.17883 7.19872 3.09201L7.06088 1.69882L6.92304 0.305619C5.53948 0.442507 4.21934 0.95366 3.10435 1.78419L3.94067 2.90694ZM7.06088 1.69882L7.19872 3.09201C8.07614 3.0052 8.96064 3.15902 9.75724 3.53695L10.3573 2.27209L10.9574 1.00722C9.70131 0.411278 8.3066 0.168731 6.92304 0.305619L7.06088 1.69882ZM10.3573 2.27209L9.75724 3.53695C10.5538 3.91489 11.2325 4.50266 11.7202 5.23716L12.8865 4.46266L14.0527 3.68817C13.2836 2.52998 12.2135 1.60316 10.9574 1.00722L10.3573 2.27209ZM2.53849 11.538L1.18011 11.1992L0.962105 12.0732L2.32049 12.412L3.67887 12.7508L3.89687 11.8768L2.53849 11.538ZM2.32049 12.412L0.954642 12.1046C0.976098 12.0093 1.0164 11.9192 1.07317 11.8397L2.21274 12.6529L3.35231 13.4662C3.5123 13.242 3.62587 12.9881 3.68633 12.7193L2.32049 12.412ZM2.21274 12.6529L1.07317 11.8397C1.12994 11.7601 1.20204 11.6927 1.28523 11.6414L2.01995 12.8331L2.75467 14.0248C2.98912 13.8803 3.19232 13.6903 3.35231 13.4662L2.21274 12.6529ZM2.01995 12.8331L1.28523 11.6414C1.36842 11.5901 1.46102 11.556 1.5576 11.541L1.77234 12.9244L1.98708 14.3078C2.25925 14.2656 2.52023 14.1694 2.75467 14.0248L2.01995 12.8331ZM1.77234 12.9244L1.5576 11.541C1.65418 11.526 1.75277 11.5305 1.8476 11.5541L1.50871 12.9125L1.16982 14.2708C1.43705 14.3375 1.71492 14.3501 1.98708 14.3078L1.77234 12.9244ZM1.50871 12.9125L1.8476 11.5541C1.94243 11.5778 2.03157 11.6201 2.10978 11.6787L1.27036 12.7992L0.430945 13.9196C0.651369 14.0848 0.90258 14.2042 1.16982 14.2708L1.50871 12.9125ZM1.27036 12.7992L2.10978 11.6787C2.188 11.7373 2.25371 11.811 2.30306 11.8953L1.09465 12.6023L-0.113752 13.3092C0.0253252 13.5469 0.210519 13.7545 0.430945 13.9196L1.27036 12.7992ZM1.09465 12.6023L2.30306 11.8953C2.35241 11.9797 2.3844 12.0731 2.39715 12.17L1.00912 12.3526L-0.378917 12.5353C-0.342983 12.8083 -0.252828 13.0715 -0.113752 13.3092L1.09465 12.6023ZM1.00912 12.3526L2.39715 12.17C2.4099 12.2669 2.40315 12.3653 2.37731 12.4596L1.02715 12.0893L-0.323 11.7191C-0.39584 11.9847 -0.414851 12.2622 -0.378917 12.5353L1.00912 12.3526ZM1.02715 12.0893L2.3856 12.4279L3.03027 9.84123L1.67182 9.50266L0.313375 9.1641L-0.331292 11.7508L1.02715 12.0893ZM1.67182 9.50266L3.03099 9.83832C3.00706 9.9352 2.96362 10.0262 2.90331 10.1057L1.78789 9.25961L0.672465 8.41354C0.502514 8.6376 0.380078 8.89399 0.312654 9.16701L1.67182 9.50266ZM1.78789 9.25961L2.90331 10.1057C2.84301 10.1852 2.76711 10.2515 2.68027 10.3007L1.99066 9.08232L1.30105 7.86395C1.05631 8.00247 0.842418 8.18949 0.672465 8.41354L1.78789 9.25961ZM1.99066 9.08232L2.68027 10.3007C2.59342 10.3499 2.49746 10.3808 2.39826 10.3915L2.24703 8.99973L2.0958 7.60793C1.81622 7.63831 1.54579 7.72542 1.30105 7.86395L1.99066 9.08232ZM2.24703 8.99973L2.39826 10.3915C2.29906 10.4023 2.1987 10.3927 2.10332 10.3634L2.51515 9.02533L2.92699 7.68728C2.65821 7.60455 2.37537 7.57755 2.0958 7.60793L2.24703 8.99973ZM2.51515 9.02533L2.17661 10.3838L4.72861 11.0198L5.06715 9.66133L5.4057 8.30288L2.8537 7.66688L2.51515 9.02533ZM5.06715 9.66133L4.72843 11.0197C4.53975 10.9727 4.37749 10.8526 4.27735 10.6859L5.4774 9.96491L6.67745 9.24389C6.39514 8.77403 5.93775 8.43555 5.40588 8.30293L5.06715 9.66133ZM5.4774 9.96491L4.27735 10.6859C4.1772 10.5193 4.14737 10.3196 4.19442 10.1309L5.55282 10.4697L6.91123 10.8084C7.04385 10.2765 6.95976 9.71376 6.67745 9.24389L5.4774 9.96491ZM5.55282 10.4697L4.19442 10.1309C4.24146 9.94226 4.36154 9.78 4.52822 9.67986L5.24924 10.8799L5.97026 12.08C6.44013 11.7977 6.7786 11.3403 6.91123 10.8084L5.55282 10.4697ZM5.24924 10.8799L4.52822 9.67986C4.6949 9.57971 4.89454 9.54988 5.08321 9.59693L4.74449 10.9553L4.40576 12.3137C4.93763 12.4464 5.50039 12.3623 5.97026 12.08L5.24924 10.8799ZM4.74449 10.9553L5.08296 9.59686L3.8923 9.3002L3.55382 10.6587L3.21535 12.0171L4.40601 12.3138L4.74449 10.9553ZM3.55382 10.6587L2.38173 11.4243C3.0355 12.4251 3.95962 13.2201 5.04689 13.7171L5.62885 12.4437L6.2108 11.1704C5.60503 10.8936 5.09016 10.4506 4.72591 9.89302L3.55382 10.6587ZM5.62885 12.4437L5.04689 13.7171C6.13417 14.214 7.34004 14.3925 8.52465 14.2319L8.33654 12.8446L8.14843 11.4573C7.48843 11.5467 6.81658 11.4473 6.2108 11.1704L5.62885 12.4437ZM8.33654 12.8446L8.52465 14.2319C9.70926 14.0712 10.8241 13.5781 11.7397 12.8096L10.8397 11.7372L9.93972 10.6648C9.42954 11.093 8.80844 11.3678 8.14843 11.4573L8.33654 12.8446ZM10.8397 11.7372L11.7397 12.8096C12.6554 12.041 13.3345 11.0287 13.6981 9.88988L12.3645 9.464L11.0308 9.03812C10.8282 9.6726 10.4499 10.2366 9.93972 10.6648L10.8397 11.7372ZM12.3645 9.464L13.6983 9.88946C13.6392 10.0747 13.5089 10.2289 13.3362 10.3181L12.6939 9.07411L12.0516 7.83013C11.5645 8.08161 11.1973 8.51629 11.0307 9.03853L12.3645 9.464ZM12.6939 9.07411L13.3362 10.3181C13.2506 10.3623 13.1572 10.3891 13.0613 10.3972L12.9439 9.00214L12.8266 7.60706C12.5561 7.62981 12.2928 7.70561 12.0516 7.83013L12.6939 9.07411ZM12.9439 9.00214L13.0613 10.3972C12.9653 10.4053 12.8687 10.3944 12.777 10.3651L13.2025 9.03133L13.628 7.69755C13.3694 7.61506 13.0971 7.58431 12.8266 7.60706L12.9439 9.00214ZM13.2025 9.03133L12.777 10.3651C12.6853 10.3359 12.6002 10.2888 12.5267 10.2267L13.4302 9.15725L14.3337 8.08781C14.1264 7.91265 13.8865 7.78004 13.628 7.69755L13.2025 9.03133ZM13.4302 9.15725L12.5267 10.2267C12.4532 10.1646 12.3926 10.0885 12.3484 10.003L13.5924 9.36072L14.8364 8.71845C14.7118 8.47727 14.541 8.26298 14.3337 8.08781L13.4302 9.15725ZM13.5924 9.36072L12.3484 10.003C12.3042 9.91745 12.2773 9.82405 12.2693 9.72811L13.6644 9.61077L15.0594 9.49344C15.0367 9.22297 14.9609 8.95962 14.8364 8.71845L13.5924 9.36072ZM13.6644 9.61077L12.2693 9.72811C12.2612 9.63216 12.2721 9.53557 12.3014 9.44386L13.6352 9.86933L14.9689 10.2948C15.0514 10.0362 15.0822 9.76392 15.0594 9.49344L13.6644 9.61077ZM13.6352 9.86933L12.3013 9.4442C12.0859 10.1199 11.725 10.7403 11.2441 11.2615L12.2731 12.2109L13.302 13.1602C14.0604 12.3383 14.6294 11.36 14.969 10.2945L13.6352 9.86933ZM12.2731 12.2109L11.2441 11.2615C10.7632 11.7828 10.1738 12.1923 9.51758 12.4612L10.0485 13.7567L10.5794 15.0521C11.6143 14.628 12.5436 13.9822 13.302 13.1602L12.2731 12.2109ZM10.0485 13.7567L9.51776 12.4612C8.49507 12.8801 7.36007 12.9378 6.30018 12.6247L5.90352 13.9673L5.50687 15.31C7.17775 15.8036 8.967 15.7126 10.5792 15.0522L10.0485 13.7567ZM5.90352 13.9673L6.30018 12.6247C5.24028 12.3116 4.31885 11.6464 3.68802 10.7389L2.53849 11.538L1.38895 12.3371C2.38341 13.7677 3.836 14.8163 5.50687 15.31L5.90352 13.9673Z" fill="#6F7A93" mask="url(#path-1-inside-1_478_15356)"/>
</svg>
