<svg width="20" height="20" viewBox="0 0 20 20" fill="none" xmlns="http://www.w3.org/2000/svg">
<path d="M11.6364 2.04761C12.159 1.70155 13.0799 1.4139 13.8303 2.01669L13.9784 2.14933L17.8495 6.02124C18.6254 6.79529 18.322 7.8059 17.9521 8.36327C17.7508 8.66639 17.4793 8.93649 17.1708 9.13228C16.8683 9.32426 16.4742 9.47925 16.0397 9.45616C15.8394 9.44561 15.6072 9.41283 15.4188 9.3878C15.2125 9.3604 15.0236 9.33646 14.8459 9.32758C14.4298 9.30683 14.3517 9.38479 14.3698 9.36664L12.2964 11.4418C12.2703 11.4678 12.1978 11.5712 12.1385 11.8397C12.0821 12.0954 12.0553 12.4175 12.049 12.7869C12.0428 13.1535 12.0563 13.5304 12.0693 13.8985C12.0816 14.2476 12.0952 14.6191 12.0766 14.9141C12.0161 15.8783 11.2721 16.5659 10.572 16.8761C9.87123 17.1866 8.82775 17.281 8.08918 16.5425L6.36236 14.8148L3.08939 18.0894C2.76399 18.4147 2.23646 18.4148 1.91105 18.0894C1.5856 17.764 1.58568 17.2365 1.91105 16.9111L5.18403 13.6373L3.4564 11.9097C2.71838 11.1715 2.81422 10.1274 3.12438 9.42768C3.43446 8.72838 4.12123 7.98469 5.08475 7.92383L5.31911 7.91488C5.56465 7.91119 5.83929 7.92113 6.10114 7.93034C6.4694 7.94329 6.84613 7.9569 7.21275 7.95069C7.58224 7.94441 7.90507 7.91846 8.16079 7.86199C8.42794 7.80296 8.53132 7.73044 8.55791 7.70411L10.633 5.62901L10.6338 5.62087C10.6474 5.58698 10.6876 5.46527 10.6721 5.15376C10.6632 4.97626 10.6401 4.78781 10.6127 4.58169C10.5878 4.39435 10.5551 4.16359 10.5443 3.96404L10.5435 3.8021C10.559 3.43017 10.6982 3.09432 10.8666 2.82883C11.0626 2.51975 11.3331 2.24854 11.6364 2.04761ZM12.8058 3.33418C12.7662 3.33625 12.6758 3.35789 12.5568 3.43671C12.4404 3.51373 12.3387 3.6181 12.2736 3.72072C12.2393 3.77476 12.2235 3.81528 12.2158 3.84034L12.2085 3.86882V3.87289C12.2146 3.98994 12.2351 4.13995 12.2646 4.36197C12.2918 4.56625 12.3244 4.81679 12.3371 5.07076C12.3594 5.51812 12.3442 6.27346 11.8122 6.80653L9.73706 8.88245C9.38522 9.2343 8.92048 9.4002 8.51966 9.48871C8.10608 9.58003 7.65701 9.61023 7.24123 9.61728C6.82271 9.62438 6.39994 9.60869 6.04255 9.59613C5.66609 9.58289 5.38597 9.57473 5.19054 9.58717C5.06781 9.59502 4.8105 9.7361 4.64775 10.1031C4.48537 10.4694 4.57869 10.6742 4.63473 10.7305L6.95153 13.0473L9.26752 15.3641C9.3247 15.4213 9.53017 15.5142 9.89656 15.3519C10.2634 15.1894 10.4053 14.9333 10.4133 14.8099C10.4256 14.6142 10.4176 14.3336 10.4044 13.9571C10.3917 13.5997 10.3753 13.1769 10.3824 12.7584C10.3894 12.3428 10.4198 11.8942 10.511 11.4808C10.5994 11.0801 10.7658 10.616 11.1172 10.2642L13.1923 8.18912C13.7254 7.65694 14.4814 7.6411 14.9289 7.66343C15.183 7.67611 15.4341 7.7087 15.6385 7.73585C15.8605 7.76534 16.0105 7.78586 16.1276 7.792C16.115 7.79133 16.1689 7.79458 16.2781 7.72527C16.3815 7.65967 16.4866 7.55751 16.5638 7.44127C16.6429 7.32198 16.6636 7.23219 16.6655 7.19388L12.8058 3.33418Z" fill="#6F7A93"/>
</svg>
