<svg width="20" height="20" viewBox="0 0 20 20" fill="none" xmlns="http://www.w3.org/2000/svg">
<path d="M8.75041 4.16659L9.58374 3.60825L10.4171 4.16659L10.1421 3.19159L10.8337 2.59992L10.0004 2.49992L9.58374 1.66659L9.16708 2.49992L8.33374 2.59992L9.02541 3.19159L8.75041 4.16659ZM16.9421 11.3916L16.2504 9.99992L15.5587 11.3916L14.1671 11.5666L15.3254 12.5499L14.8587 14.1666L16.2504 13.2416L17.6421 14.1666L17.1754 12.5499L18.3337 11.5666L16.9421 11.3916ZM4.02541 7.49992L5.41708 6.57492L6.80874 7.49992L6.34208 5.87492L7.50041 4.89992L6.10874 4.72492L5.41708 3.33325L4.72541 4.72492L3.33374 4.89992L4.49208 5.87492L4.02541 7.49992ZM15.5921 1.90825C15.515 1.831 15.4234 1.76971 15.3226 1.72789C15.2218 1.68608 15.1137 1.66455 15.0046 1.66455C14.8954 1.66455 14.7874 1.68608 14.6866 1.72789C14.5857 1.76971 14.4942 1.831 14.4171 1.90825L1.90874 14.4083C1.83149 14.4853 1.7702 14.5769 1.72838 14.6777C1.68656 14.7785 1.66504 14.8866 1.66504 14.9958C1.66504 15.1049 1.68656 15.213 1.72838 15.3138C1.7702 15.4146 1.83149 15.5062 1.90874 15.5833L4.40874 18.0833C4.57541 18.2499 4.78374 18.3249 5.00041 18.3249C5.21708 18.3249 5.42541 18.2416 5.59208 18.0833L18.0921 5.58325C18.1693 5.50616 18.2306 5.41459 18.2724 5.31377C18.3143 5.21296 18.3358 5.10489 18.3358 4.99575C18.3358 4.88661 18.3143 4.77854 18.2724 4.67773C18.2306 4.57692 18.1693 4.48535 18.0921 4.40825L15.5921 1.90825ZM5.00041 16.3249L3.67541 14.9999L11.2504 7.42492L12.5754 8.74992L5.00041 16.3249ZM13.7504 7.57492L12.4254 6.24992L15.0004 3.67492L16.3254 4.99992L13.7504 7.57492Z" fill="#6F7A93"/>
</svg>
