<svg width="36" height="36" viewBox="0 0 36 36" fill="none" xmlns="http://www.w3.org/2000/svg">
<path d="M23.833 8.83334L19.6663 13V22.1667L23.833 18.4167V8.83334ZM25.4997 12.1667V23.4167C24.583 23.125 23.583 23 22.583 23C21.1663 23 19.1247 23.5417 17.9997 24.25V13C16.7913 12.0833 15.0413 11.75 13.4163 11.75C11.7913 11.75 10.0413 12.0833 8.83301 13V25.2083C8.83301 25.4167 9.04134 25.625 9.24967 25.625C9.33301 25.625 9.37467 25.5833 9.45801 25.5833C10.583 25.0417 12.208 24.6667 13.4163 24.6667C15.0413 24.6667 16.7913 25 17.9997 25.9167C19.1247 25.2083 21.1663 24.6667 22.583 24.6667C23.958 24.6667 25.3747 24.9167 26.5413 25.5417C26.6247 25.5833 26.6663 25.5833 26.7497 25.5833C26.958 25.5833 27.1663 25.375 27.1663 25.1667V13C26.6663 12.625 26.1247 12.375 25.4997 12.1667ZM16.333 23.3417C15.2913 23.075 14.2497 23 13.4163 23C12.533 23 11.483 23.1583 10.4997 23.4167V13.9417C11.258 13.6083 12.283 13.4167 13.4163 13.4167C14.5497 13.4167 15.5747 13.6083 16.333 13.9417V23.3417Z" fill="#4D5462"/>
</svg>
